<?xml version="1.0" encoding="utf-8"?>
<!-- Generator: Adobe Illustrator 19.1.0, SVG Export Plug-In . SVG Version: 6.00 Build 0)  -->
<svg version="1.1" id="Layer_1" xmlns="http://www.w3.org/2000/svg" xmlns:xlink="http://www.w3.org/1999/xlink" x="0px" y="0px"
	 viewBox="0 0 88.8 36.7" style="enable-background:new 0 0 88.8 36.7;" xml:space="preserve">
<style type="text/css">
	.st0{fill:#231F20;}
</style>
<g>
	<g>
		<path class="st0" d="M88.7,15.9l-0.1-0.2c-0.9-1.7-2.6-3.3-5-4.5c-3.8-2-8.4-2.7-10.8-2.5l-18.9,2.2L23.8,2.5
			c-0.3-0.1-0.5-0.1-0.8-0.1c-0.7,0.1-1.3,0.6-1.6,1.2c-0.4,0.9-0.1,2,0.8,2.6L33,13.4l-15.2,1.8c-2.5-3.3-4.9-6.4-7.1-9.3
			C7.3,1.4,4.5-0.5,2.4,0.1C0.2,0.8-0.1,3.8,0,4.8l3.5,19.6c0.1,0.7,0.3,1.2,0.8,1.6c0.8,0.6,1.7,0.5,2.8,0.3l3.7-0.5l19,0.5
			l-6.4,6.8c-0.7,0.8-0.8,1.9-0.1,2.7c0.2,0.2,0.4,0.4,0.7,0.6c0.4,0.2,0.8,0.3,1.2,0.2c0.3,0,0.5-0.1,0.8-0.3l15.6-8.7l8.6-3.4
			L82,20.5c0.5-0.1,1-0.1,1.4-0.1c1.1-0.1,2.1-0.2,2.9-0.5C88.2,19.4,89,18.1,88.7,15.9z"/>
	</g>
</g>
</svg>
