<svg style="position: absolute; width: 0; height: 0;" width="0" height="0" version="1.1" xmlns="http://www.w3.org/2000/svg" xmlns:xlink="http://www.w3.org/1999/xlink">
<defs>
<symbol id="icon-duc" viewBox="0 0 785 1024">
	<title>duc</title>
	<path class="path1" d="M754.347 0h-515.413l-5.12 1.707c-3.413 1.707-6.827 3.413-10.24 6.827v0l-211.627 187.733c-6.827 5.12-11.947 15.36-11.947 23.893v773.12c0 17.067 13.653 30.72 30.72 30.72h723.627c17.067 0 30.72-13.653 30.72-30.72v-962.56c0-17.067-13.653-30.72-30.72-30.72zM110.933 189.44l102.4-92.16v90.453l-102.4 1.707zM273.067 61.44h450.56v902.827h-662.187v-713.387h182.613c8.533 0 15.36-3.413 22.187-8.533 5.12-5.12 8.533-13.653 8.533-22.187l-1.707-158.72z"></path>
	<path class="path2" d="M145.067 414.72c0 17.067 13.653 30.72 30.72 30.72h431.787c17.067 0 30.72-13.653 30.72-30.72s-13.653-30.72-30.72-30.72h-431.787c-17.067 0-30.72 13.653-30.72 30.72z"></path>
	<path class="path3" d="M609.28 481.28h-433.493c-17.067 0-30.72 13.653-30.72 30.72s13.653 30.72 30.72 30.72h431.787c17.067 0 30.72-13.653 30.72-30.72s-13.653-30.72-29.013-30.72z"></path>
	<path class="path4" d="M609.28 573.44h-433.493c-17.067 0-30.72 13.653-30.72 30.72s13.653 30.72 30.72 30.72h431.787c17.067 0 30.72-13.653 30.72-30.72s-13.653-30.72-29.013-30.72z"></path>
	<path class="path5" d="M609.28 670.72h-433.493c-17.067 0-30.72 13.653-30.72 30.72s13.653 30.72 30.72 30.72h431.787c17.067 0 30.72-13.653 30.72-30.72s-13.653-30.72-29.013-30.72z"></path>
</symbol>
<symbol id="icon-phone" viewBox="0 0 1048 1024">
	<title>phone</title>
	<path class="path1" d="M745.338 1024c-70.505-6.715-537.18-117.508-731.908-671.475-40.289-117.508 10.072-305.521 141.010-345.81 134.295-43.646 204.8 144.367 224.944 265.233l-117.508 117.508c0 0-3.357 73.862 157.797 235.016s235.016 157.797 235.016 157.797l137.652-137.652c87.292 16.787 258.518 127.58 258.518 127.58-23.502 161.154-134.295 268.59-305.521 251.803z"></path>
</symbol>
<symbol id="icon-plane" viewBox="0 0 2478 1024">
	<title>plane</title>
	<path class="path1" d="M2474.899 443.64l-2.79-5.58c-25.112-47.433-72.545-92.076-139.51-125.559-106.027-55.804-234.376-75.335-301.341-69.755l-527.346 61.384-839.847-234.376c-8.371-2.79-13.951-2.79-22.322-2.79-19.531 2.79-36.272 16.741-44.643 33.482-11.161 25.112-2.79 55.804 22.322 72.545l301.341 200.894-424.109 50.223c-69.755-92.076-136.719-178.572-198.104-259.488-94.866-125.559-172.992-178.572-231.586-161.831-61.384 19.531-69.755 103.237-66.965 131.139l97.657 546.877c2.79 19.531 8.371 33.482 22.322 44.643 22.322 16.741 47.433 13.951 78.125 8.371l103.237-13.951 530.136 13.951-178.572 189.733c-19.531 22.322-22.322 53.014-2.79 75.335 5.58 5.58 11.161 11.161 19.531 16.741 11.161 5.58 22.322 8.371 33.482 5.58 8.371 0 13.951-2.79 22.322-8.371l435.27-242.747 239.956-94.866 887.281-103.237c13.951-2.79 27.902-2.79 39.063-2.79 30.692-2.79 58.594-5.58 80.916-13.951 53.014-13.951 75.335-50.223 66.965-111.608z"></path>
</symbol>
<symbol id="icon-truck" viewBox="0 0 1827 1024">
	<title>truck</title>
	<path class="path1" d="M142.991 712.649h1070.126v147.604h-779.532c-23.063-64.577-85.333-108.396-156.829-108.396s-131.459 43.82-154.523 106.090c-29.982-9.225-50.739-34.595-50.739-69.189v-6.919c0-39.207 32.288-69.189 71.495-69.189zM396.685 899.459c0 69.189-55.351 124.541-124.541 124.541s-124.541-55.351-124.541-124.541 55.351-124.541 124.541-124.541c69.189 2.306 124.541 57.658 124.541 124.541zM357.477 899.459c0-48.432-39.207-85.333-85.333-85.333s-85.333 39.207-85.333 85.333c0 48.432 39.207 85.333 85.333 85.333 48.432 0 85.333-36.901 85.333-85.333zM1646.703 899.459c0 69.189-55.351 124.541-124.541 124.541s-124.541-55.351-124.541-124.541 55.351-124.541 124.541-124.541c66.883 2.306 124.541 57.658 124.541 124.541zM1607.495 899.459c0-48.432-39.207-85.333-85.333-85.333-48.432 0-85.333 39.207-85.333 85.333 0 48.432 39.207 85.333 85.333 85.333s85.333-36.901 85.333-85.333zM1826.595 544.288v279.063c0 13.838-11.532 23.063-23.063 23.063h-124.541c-25.369-57.658-83.027-96.865-152.216-96.865-66.883 0-124.541 39.207-152.216 96.865h-83.027c-13.838 0-23.063-11.532-23.063-23.063v-560.432c0-13.838 11.532-23.063 23.063-23.063h311.351c13.838 0 32.288 4.613 46.126 23.063l177.586 281.369zM1715.892 484.324l-106.090-175.279c-9.225-16.144-18.45-23.063-55.351-23.063h-193.73c-13.838 0-23.063 11.532-23.063 23.063v175.279c0 13.838 11.532 23.063 23.063 23.063h329.802c13.838 0 25.369-11.532 25.369-23.063zM1808.144 751.856c0-11.532-9.225-23.063-23.063-23.063-11.532 0-23.063 9.225-23.063 23.063v41.514c0 11.532 9.225 23.063 23.063 23.063 11.532 0 23.063-9.225 23.063-23.063v-41.514zM0 668.829h1213.117v-668.829h-1213.117v668.829z"></path>
</symbol>
</defs>
</svg>
