<?xml version="1.0" encoding="utf-8"?>
<!-- Generator: Adobe Illustrator 19.1.0, SVG Export Plug-In . SVG Version: 6.00 Build 0)  -->
<svg version="1.1" id="Layer_1" xmlns="http://www.w3.org/2000/svg" xmlns:xlink="http://www.w3.org/1999/xlink" x="0px" y="0px"
	 viewBox="0 0 79.2 44.4" style="enable-background:new 0 0 79.2 44.4;" xml:space="preserve">
<style type="text/css">
	.st0{fill:#231F20;}
</style>
<path class="st0" d="M6.2,30.9h46.4v6.4H19.5h-0.7c-1-2.8-3.7-4.7-6.8-4.7c-3.1,0-5.7,1.9-6.7,4.6c-1.3-0.4-2.2-1.5-2.2-3v-0.3
	C3.1,32.2,4.5,30.9,6.2,30.9z M17.2,39c0,3-2.4,5.4-5.4,5.4c-3,0-5.4-2.4-5.4-5.4s2.4-5.4,5.4-5.4C14.8,33.7,17.2,36.1,17.2,39z
	 M15.5,39c0-2.1-1.7-3.7-3.7-3.7S8.1,37,8.1,39c0,2.1,1.7,3.7,3.7,3.7C13.9,42.7,15.5,41.1,15.5,39z M71.4,39c0,3-2.4,5.4-5.4,5.4
	c-3,0-5.4-2.4-5.4-5.4s2.4-5.4,5.4-5.4C68.9,33.7,71.4,36.1,71.4,39z M69.7,39c0-2.1-1.7-3.7-3.7-3.7c-2.1,0-3.7,1.7-3.7,3.7
	c0,2.1,1.7,3.7,3.7,3.7C68,42.7,69.7,41.1,69.7,39z M79.2,23.6v12.1c0,0.6-0.5,1-1,1h-5.4c-1.1-2.5-3.6-4.2-6.6-4.2
	c-2.9,0-5.4,1.7-6.6,4.2h-3.6c-0.6,0-1-0.5-1-1V11.4c0-0.6,0.5-1,1-1h13.5c0.6,0,1.4,0.2,2,1L79.2,23.6z M74.4,21l-4.6-7.6
	c-0.4-0.7-0.8-1-2.4-1h-8.4c-0.6,0-1,0.5-1,1V21c0,0.6,0.5,1,1,1h14.3C73.9,22,74.4,21.5,74.4,21z M78.4,32.6c0-0.5-0.4-1-1-1
	c-0.5,0-1,0.4-1,1v1.8c0,0.5,0.4,1,1,1c0.5,0,1-0.4,1-1V32.6z M0,29h52.6V0H0V29z"/>
</svg>
